<mxfile host="app.diagrams.net" modified="2024-06-24T19:52:11.480Z" agent="Mozilla/5.0 (Windows NT 10.0; Win64; x64) AppleWebKit/537.36 (KHTML, like Gecko) Chrome/126.0.0.0 Safari/537.36" etag="e6p7vVCpvej2gWSYmoaL" version="24.6.2" type="device">
  <diagram name="Страница — 1" id="7_zFcxS8pMr4SYFm8mWi">
    <mxGraphModel dx="1050" dy="625" grid="1" gridSize="10" guides="1" tooltips="1" connect="1" arrows="1" fold="1" page="1" pageScale="1" pageWidth="827" pageHeight="1169" math="0" shadow="0">
      <root>
        <mxCell id="0" />
        <mxCell id="1" parent="0" />
        <mxCell id="fFdrQQ_ICZO-Sk-EjgjL-1" value="Сотрудник" style="shape=umlActor;verticalLabelPosition=bottom;verticalAlign=top;html=1;outlineConnect=0;" vertex="1" parent="1">
          <mxGeometry x="80" y="360" width="80" height="80" as="geometry" />
        </mxCell>
        <mxCell id="fFdrQQ_ICZO-Sk-EjgjL-2" value="Руководитель" style="shape=umlActor;verticalLabelPosition=bottom;verticalAlign=top;html=1;outlineConnect=0;" vertex="1" parent="1">
          <mxGeometry x="80" y="520" width="80" height="80" as="geometry" />
        </mxCell>
        <mxCell id="fFdrQQ_ICZO-Sk-EjgjL-5" value="Просмотреть список уведомления" style="ellipse;whiteSpace=wrap;html=1;" vertex="1" parent="1">
          <mxGeometry x="260" y="330" width="120" height="80" as="geometry" />
        </mxCell>
        <mxCell id="fFdrQQ_ICZO-Sk-EjgjL-6" value="" style="endArrow=none;html=1;rounded=0;entryX=-0.03;entryY=0.41;entryDx=0;entryDy=0;entryPerimeter=0;" edge="1" parent="1" source="fFdrQQ_ICZO-Sk-EjgjL-1" target="fFdrQQ_ICZO-Sk-EjgjL-5">
          <mxGeometry width="50" height="50" relative="1" as="geometry">
            <mxPoint x="200" y="440" as="sourcePoint" />
            <mxPoint x="250" y="390" as="targetPoint" />
          </mxGeometry>
        </mxCell>
        <mxCell id="fFdrQQ_ICZO-Sk-EjgjL-7" value="Скрыть уведомления" style="ellipse;whiteSpace=wrap;html=1;" vertex="1" parent="1">
          <mxGeometry x="270" y="230" width="120" height="80" as="geometry" />
        </mxCell>
        <mxCell id="fFdrQQ_ICZO-Sk-EjgjL-9" value="Добавить напоминание" style="ellipse;whiteSpace=wrap;html=1;" vertex="1" parent="1">
          <mxGeometry x="270" y="420" width="120" height="80" as="geometry" />
        </mxCell>
        <mxCell id="fFdrQQ_ICZO-Sk-EjgjL-11" value="Добавить уведомления" style="ellipse;whiteSpace=wrap;html=1;" vertex="1" parent="1">
          <mxGeometry x="280" y="520" width="120" height="80" as="geometry" />
        </mxCell>
        <mxCell id="fFdrQQ_ICZO-Sk-EjgjL-12" value="" style="endArrow=none;html=1;rounded=0;" edge="1" parent="1" source="fFdrQQ_ICZO-Sk-EjgjL-2" target="fFdrQQ_ICZO-Sk-EjgjL-11">
          <mxGeometry width="50" height="50" relative="1" as="geometry">
            <mxPoint x="320" y="740" as="sourcePoint" />
            <mxPoint x="370" y="690" as="targetPoint" />
          </mxGeometry>
        </mxCell>
        <mxCell id="fFdrQQ_ICZO-Sk-EjgjL-13" value="" style="endArrow=none;html=1;rounded=0;" edge="1" parent="1" source="fFdrQQ_ICZO-Sk-EjgjL-2" target="fFdrQQ_ICZO-Sk-EjgjL-5">
          <mxGeometry width="50" height="50" relative="1" as="geometry">
            <mxPoint x="230" y="500" as="sourcePoint" />
            <mxPoint x="280" y="450" as="targetPoint" />
          </mxGeometry>
        </mxCell>
        <mxCell id="fFdrQQ_ICZO-Sk-EjgjL-14" value="Добавить уведомления сотруднику или группе сотрудников" style="ellipse;whiteSpace=wrap;html=1;" vertex="1" parent="1">
          <mxGeometry x="500" y="480" width="160" height="100" as="geometry" />
        </mxCell>
        <mxCell id="fFdrQQ_ICZO-Sk-EjgjL-15" value="Добавить уведомления всем сотрудникам проекта&amp;nbsp;" style="ellipse;whiteSpace=wrap;html=1;" vertex="1" parent="1">
          <mxGeometry x="490" y="600" width="160" height="90" as="geometry" />
        </mxCell>
        <mxCell id="fFdrQQ_ICZO-Sk-EjgjL-20" value="Уведомления может быть добавлено как немедленно так и на конкретную дату и время&amp;nbsp;" style="shape=note;whiteSpace=wrap;html=1;backgroundOutline=1;darkOpacity=0.05;" vertex="1" parent="1">
          <mxGeometry x="690" y="460" width="100" height="150" as="geometry" />
        </mxCell>
        <mxCell id="fFdrQQ_ICZO-Sk-EjgjL-21" value="" style="endArrow=none;dashed=1;html=1;dashPattern=1 3;strokeWidth=2;rounded=0;entryX=-0.008;entryY=0.371;entryDx=0;entryDy=0;entryPerimeter=0;" edge="1" parent="1" source="fFdrQQ_ICZO-Sk-EjgjL-14" target="fFdrQQ_ICZO-Sk-EjgjL-20">
          <mxGeometry width="50" height="50" relative="1" as="geometry">
            <mxPoint x="670" y="580" as="sourcePoint" />
            <mxPoint x="720" y="530" as="targetPoint" />
          </mxGeometry>
        </mxCell>
        <mxCell id="fFdrQQ_ICZO-Sk-EjgjL-22" value="" style="endArrow=none;dashed=1;html=1;dashPattern=1 3;strokeWidth=2;rounded=0;exitX=0.922;exitY=0.231;exitDx=0;exitDy=0;exitPerimeter=0;" edge="1" parent="1" source="fFdrQQ_ICZO-Sk-EjgjL-15" target="fFdrQQ_ICZO-Sk-EjgjL-20">
          <mxGeometry width="50" height="50" relative="1" as="geometry">
            <mxPoint x="660" y="770" as="sourcePoint" />
            <mxPoint x="710" y="720" as="targetPoint" />
          </mxGeometry>
        </mxCell>
        <mxCell id="fFdrQQ_ICZO-Sk-EjgjL-23" value="Напоминание добавляет уведомления этому сотруднику на конкретную дату и время&amp;nbsp;" style="shape=note;whiteSpace=wrap;html=1;backgroundOutline=1;darkOpacity=0.05;" vertex="1" parent="1">
          <mxGeometry x="650" y="330" width="160" height="120" as="geometry" />
        </mxCell>
        <mxCell id="fFdrQQ_ICZO-Sk-EjgjL-24" value="" style="endArrow=none;dashed=1;html=1;dashPattern=1 3;strokeWidth=2;rounded=0;" edge="1" parent="1" source="fFdrQQ_ICZO-Sk-EjgjL-9" target="fFdrQQ_ICZO-Sk-EjgjL-23">
          <mxGeometry width="50" height="50" relative="1" as="geometry">
            <mxPoint x="610" y="410" as="sourcePoint" />
            <mxPoint x="660" y="360" as="targetPoint" />
          </mxGeometry>
        </mxCell>
        <mxCell id="fFdrQQ_ICZO-Sk-EjgjL-26" value="&amp;lt;&amp;lt;extend&amp;gt;&amp;gt;" style="html=1;verticalAlign=bottom;labelBackgroundColor=none;endArrow=open;endFill=0;dashed=1;rounded=0;entryX=1;entryY=0;entryDx=0;entryDy=0;exitX=0;exitY=0.5;exitDx=0;exitDy=0;" edge="1" parent="1" source="fFdrQQ_ICZO-Sk-EjgjL-14" target="fFdrQQ_ICZO-Sk-EjgjL-11">
          <mxGeometry width="160" relative="1" as="geometry">
            <mxPoint x="320" y="680" as="sourcePoint" />
            <mxPoint x="480" y="680" as="targetPoint" />
          </mxGeometry>
        </mxCell>
        <mxCell id="fFdrQQ_ICZO-Sk-EjgjL-27" value="&amp;lt;&amp;lt;extend&amp;gt;&amp;gt;" style="html=1;verticalAlign=bottom;labelBackgroundColor=none;endArrow=open;endFill=0;dashed=1;rounded=0;entryX=1;entryY=0.625;entryDx=0;entryDy=0;entryPerimeter=0;" edge="1" parent="1" source="fFdrQQ_ICZO-Sk-EjgjL-15" target="fFdrQQ_ICZO-Sk-EjgjL-11">
          <mxGeometry width="160" relative="1" as="geometry">
            <mxPoint x="360" y="650" as="sourcePoint" />
            <mxPoint x="520" y="650" as="targetPoint" />
          </mxGeometry>
        </mxCell>
        <mxCell id="fFdrQQ_ICZO-Sk-EjgjL-28" value="" style="endArrow=none;html=1;rounded=0;entryX=0;entryY=0.5;entryDx=0;entryDy=0;" edge="1" parent="1" source="fFdrQQ_ICZO-Sk-EjgjL-1" target="fFdrQQ_ICZO-Sk-EjgjL-7">
          <mxGeometry width="50" height="50" relative="1" as="geometry">
            <mxPoint x="180" y="320" as="sourcePoint" />
            <mxPoint x="230" y="270" as="targetPoint" />
          </mxGeometry>
        </mxCell>
        <mxCell id="fFdrQQ_ICZO-Sk-EjgjL-29" value="" style="endArrow=none;html=1;rounded=0;" edge="1" parent="1" source="fFdrQQ_ICZO-Sk-EjgjL-1" target="fFdrQQ_ICZO-Sk-EjgjL-9">
          <mxGeometry width="50" height="50" relative="1" as="geometry">
            <mxPoint x="190" y="460" as="sourcePoint" />
            <mxPoint x="240" y="410" as="targetPoint" />
          </mxGeometry>
        </mxCell>
        <mxCell id="fFdrQQ_ICZO-Sk-EjgjL-30" value="При скрытии уведомление не удаляется я просто не выводится&amp;nbsp;" style="shape=note;whiteSpace=wrap;html=1;backgroundOutline=1;darkOpacity=0.05;" vertex="1" parent="1">
          <mxGeometry x="650" y="90" width="150" height="100" as="geometry" />
        </mxCell>
        <mxCell id="fFdrQQ_ICZO-Sk-EjgjL-31" value="" style="endArrow=none;dashed=1;html=1;dashPattern=1 3;strokeWidth=2;rounded=0;" edge="1" parent="1" source="fFdrQQ_ICZO-Sk-EjgjL-7" target="fFdrQQ_ICZO-Sk-EjgjL-30">
          <mxGeometry width="50" height="50" relative="1" as="geometry">
            <mxPoint x="490" y="310" as="sourcePoint" />
            <mxPoint x="560" y="260" as="targetPoint" />
          </mxGeometry>
        </mxCell>
        <mxCell id="fFdrQQ_ICZO-Sk-EjgjL-32" value="Для сотрудника видные только уведомления в которых от отмечен" style="shape=note;whiteSpace=wrap;html=1;backgroundOutline=1;darkOpacity=0.05;" vertex="1" parent="1">
          <mxGeometry x="650" y="210" width="150" height="100" as="geometry" />
        </mxCell>
        <mxCell id="fFdrQQ_ICZO-Sk-EjgjL-33" value="" style="endArrow=none;dashed=1;html=1;dashPattern=1 3;strokeWidth=2;rounded=0;entryX=0;entryY=0.5;entryDx=0;entryDy=0;entryPerimeter=0;" edge="1" parent="1" source="fFdrQQ_ICZO-Sk-EjgjL-5" target="fFdrQQ_ICZO-Sk-EjgjL-32">
          <mxGeometry width="50" height="50" relative="1" as="geometry">
            <mxPoint x="480" y="350" as="sourcePoint" />
            <mxPoint x="530" y="300" as="targetPoint" />
          </mxGeometry>
        </mxCell>
      </root>
    </mxGraphModel>
  </diagram>
</mxfile>
